<svg width="190" height="138" viewBox="0 0 190 138" fill="none" xmlns="http://www.w3.org/2000/svg">
<path d="M11 21.6667C16.891 21.6667 21.6667 16.891 21.6667 11C21.6667 5.10896 16.891 0.333333 11 0.333333C5.10896 0.333334 0.333328 5.10896 0.333328 11C0.333328 16.891 5.10896 21.6667 11 21.6667ZM13 129L13 11L8.99999 11L9 129L13 129Z" fill="#FEFEFE"/>
<path d="M168.333 127C168.333 132.891 173.109 137.667 179 137.667C184.891 137.667 189.667 132.891 189.667 127C189.667 121.109 184.891 116.333 179 116.333C173.109 116.333 168.333 121.109 168.333 127ZM9 129L179 129L179 125L9 125L9 129Z" fill="#FEFEFE"/>
</svg>
