<svg width="143" height="48" viewBox="0 0 143 48" fill="none" xmlns="http://www.w3.org/2000/svg">
<path d="M14.3489 11.4854C10.0297 11.4854 6.51929 14.9957 6.51929 19.3149C6.51929 23.6341 10.0297 27.1445 14.3489 27.1445C18.668 27.1445 22.1784 23.6341 22.1784 19.3149C22.1784 14.9957 18.668 11.4854 14.3489 11.4854ZM14.3489 24.718C11.3723 24.718 8.9458 22.2914 8.9458 19.3149C8.9458 16.3384 11.3723 13.9119 14.3489 13.9119C17.3254 13.9119 19.7519 16.3384 19.7519 19.3149C19.7519 22.2914 17.3254 24.718 14.3489 24.718Z" fill="#285AE1"/>
<path d="M35.12 14.7045L39.2289 18.2634L37.9994 23.5532L42.6422 20.7546L47.2849 23.5532L46.0555 18.2634L50.1482 14.7045L44.7451 14.2354L42.626 9.25293L40.5068 14.2354L35.12 14.7045ZM42.6422 14.478L43.3539 16.1442L45.1657 16.306L43.7907 17.5031L44.2113 19.2664L42.6583 18.3281L41.1054 19.2664L41.526 17.5031L40.1509 16.306L41.9627 16.1442L42.6422 14.478Z" fill="#285AE1"/>
<path d="M37.7889 39.6493L32.7903 33.033L25.1225 42.464L19.5739 27.8726L13.7341 42.4802C7.52218 39.164 3.13829 32.8712 2.5074 25.527C4.75597 29.7814 9.22075 32.6933 14.365 32.6933C14.5914 32.6933 14.8341 32.6933 15.0606 32.6771L16.0797 30.1373C15.5135 30.2182 14.9473 30.2667 14.365 30.2667C8.31485 30.2667 3.4133 25.349 3.4133 19.3151C3.4133 17.6327 3.80153 16.0312 4.48096 14.6076C4.48096 14.5915 4.49713 14.5753 4.49713 14.5591C6.27658 10.887 10.0296 8.36339 14.365 8.36339C20.4151 8.36339 25.3167 13.2811 25.3167 19.3151C25.3167 22.4372 24.0063 25.2519 21.9033 27.2417L22.8254 29.6682C25.8181 27.2093 27.7432 23.4887 27.7432 19.3151C27.7432 11.9385 21.7416 5.93687 14.365 5.93687C13.3944 5.93687 12.4561 6.03393 11.5502 6.24423C13.8149 4.65891 16.4032 3.49418 19.2018 2.89564C26.3034 4.98244 31.4962 11.5664 31.4962 19.3312C31.4962 25.1064 28.6167 30.2344 24.2166 33.3403L25.1063 35.6698C30.4123 32.1756 33.9227 26.1578 33.9227 19.3312C33.9227 12.1164 29.9917 5.80746 24.1681 2.42652C30.5741 2.55593 36.2845 5.53245 40.1022 10.1267L41.1537 7.65161C36.8183 2.94417 30.6065 0 23.7151 0C14.2841 0 6.11481 5.53245 2.29709 13.54C2.29709 13.5561 2.28092 13.5723 2.28092 13.5885C0.825012 16.6621 0 20.1077 0 23.7313C0 36.8022 10.6443 47.4465 23.7151 47.4465C36.0095 47.4465 46.1523 38.0316 47.3171 26.0284L44.9876 24.621C44.7288 30.5741 41.9949 35.9286 37.7889 39.6493ZM35.8801 41.1375C33.1138 43.0787 29.8623 44.3729 26.352 44.8097L32.7256 36.9639L35.8801 41.1375ZM19.5092 34.5536L23.4725 44.9714C20.8195 44.9391 18.2798 44.4214 15.9341 43.4994L19.5092 34.5536Z" fill="#285AE1"/>
<path d="M57.0002 19.3319C57.0002 18.2889 57.3943 17.4776 58.1591 16.9445C58.924 16.3883 59.8975 16.1333 61.0796 16.1333C62.5398 16.1333 63.8146 16.4114 64.8808 16.9909V19.9577C63.8146 19.2855 62.6789 18.9378 61.4504 18.961C60.8478 18.961 60.5233 19.1233 60.5233 19.4246C60.5233 19.5637 60.616 19.6795 60.8015 19.7954C60.9869 19.9113 61.2187 20.004 61.52 20.0967C61.8213 20.1895 62.1458 20.2822 62.4934 20.3749C62.8643 20.4676 63.212 20.6067 63.5828 20.7921C63.9537 20.9543 64.2782 21.1629 64.5563 21.3947C64.8576 21.6265 65.0894 21.9278 65.2748 22.3218C65.4602 22.7159 65.553 23.1331 65.553 23.6198C65.553 25.8681 64.0927 26.9806 61.1955 26.9806C59.6194 26.9806 58.2519 26.6561 57.0698 26.0071V22.9013C58.2982 23.7125 59.573 24.1065 60.8478 24.1065C61.2882 24.1065 61.5895 24.0602 61.7517 23.9907C61.914 23.9211 62.0067 23.7821 62.0067 23.5966C62.0067 23.4344 61.8908 23.2953 61.6359 23.1563C61.3809 23.0172 61.0796 22.9013 60.7087 22.8086C60.3379 22.7159 59.9207 22.5768 59.5035 22.3914C59.0631 22.206 58.6691 22.0205 58.2982 21.7887C57.9274 21.557 57.6029 21.2325 57.3711 20.7921C57.1393 20.3517 57.0002 19.8881 57.0002 19.3319Z" fill="#EBE0F6"/>
<path d="M66.6886 16.3418H74.546V19.0305H70.119V20.2357H74.0129V22.7621H70.119V23.9906H74.6387V26.7256H66.6886V16.3418Z" fill="#EBE0F6"/>
<path d="M82.4034 26.7258H78.9035L75.1023 16.3652H78.7413L80.6651 22.716L82.5657 16.3652H86.2046L82.4034 26.7258Z" fill="#EBE0F6"/>
<path d="M86.9464 16.3418H94.8037V19.0305H90.3767V20.2357H94.2706V22.7621H90.3767V23.9906H94.8964V26.7256H86.9464V16.3418Z" fill="#EBE0F6"/>
<path d="M99.5783 26.7258H96.148V16.3652H100.969C101.572 16.3652 102.105 16.4348 102.591 16.5507C103.078 16.6665 103.542 16.852 103.982 17.1301C104.423 17.4082 104.747 17.7791 105.002 18.2658C105.257 18.7526 105.373 19.3552 105.373 20.0274C105.373 21.5108 104.77 22.5306 103.588 23.1332L106.254 26.749H102.499L100.366 23.6895H99.5551V26.7258H99.5783ZM99.5783 19.1466V21.0936H100.899C101.224 21.0936 101.479 21.0009 101.664 20.8154C101.85 20.63 101.942 20.3982 101.942 20.0969C101.942 19.7956 101.85 19.5638 101.664 19.3784C101.479 19.193 101.224 19.1002 100.899 19.1002H99.5783V19.1466Z" fill="#EBE0F6"/>
<path d="M113.207 16.3418H116.614V26.7024H113.207V23.0403H110.403V26.7256H106.972V16.365H110.403V20.0503H113.207V16.3418Z" fill="#EBE0F6"/>
<path d="M122.71 26.7258H118.167V16.3652H121.597V19.332H122.71C125.7 19.332 127.183 20.5605 127.183 23.0405C127.183 25.4974 125.7 26.7258 122.71 26.7258ZM121.597 22.1366V23.9213H122.687C123.011 23.9213 123.289 23.8517 123.498 23.6895C123.707 23.5504 123.823 23.3187 123.823 23.0173C123.823 22.716 123.707 22.5074 123.498 22.3452C123.289 22.2061 123.011 22.1134 122.687 22.1134H121.597V22.1366ZM131.24 26.7258H127.809V16.3652H131.24V26.7258Z" fill="#EBE0F6"/>
<path d="M139.12 23.6199C139.12 22.9477 139.143 22.3682 139.213 21.8815L135.69 26.7489H132.793V16.3883H136.223V19.4942C136.223 20.1895 136.2 20.769 136.13 21.2789L139.653 16.4115H142.55V26.7721H139.12V23.6199ZM140.441 12.8652C139.7 13.3288 138.796 13.5374 137.753 13.5374C136.71 13.5374 135.806 13.3056 135.064 12.8652V14.9744C135.829 15.4844 136.71 15.7393 137.753 15.7393C138.772 15.7393 139.676 15.4844 140.441 14.9744V12.8652Z" fill="#EBE0F6"/>
<path d="M66.1093 30.5269H69.1456V40.8875H65.8079V36.136L64.0927 38.7783H62.308L60.5929 36.136V40.8875H57.2552V30.5269H60.2915L63.1888 35.0698L66.1093 30.5269Z" fill="#EBE0F6"/>
<path d="M70.7217 30.5269H74.1521V40.8875H70.7217V30.5269Z" fill="#EBE0F6"/>
<path d="M79.1354 40.9109H75.705V30.5503H80.526C81.1287 30.5503 81.6618 30.6198 82.1485 30.7357C82.6352 30.8516 83.0988 31.037 83.5392 31.3152C83.9796 31.5933 84.3041 31.9641 84.559 32.4509C84.814 32.9376 84.9299 33.5403 84.9299 34.2124C84.9299 35.6958 84.3272 36.7156 83.1452 37.3183L85.8106 40.9341H82.0558L79.9234 37.8746H79.1122V40.9109H79.1354ZM79.1354 33.3085V35.2554H80.4565C80.781 35.2554 81.036 35.1627 81.2214 34.9773C81.4068 34.7919 81.4995 34.5601 81.4995 34.2588C81.4995 33.9575 81.4068 33.7257 81.2214 33.5403C81.036 33.3548 80.781 33.2621 80.4565 33.2621H79.1354V33.3085Z" fill="#EBE0F6"/>
<path d="M91.5122 32.984C91.5122 34.3283 90.4229 35.4177 89.0785 35.4177C87.7342 35.4177 86.6448 34.3283 86.6448 32.984C86.6448 31.6397 87.7342 30.5503 89.0785 30.5503C90.4229 30.5503 91.5122 31.6397 91.5122 32.984ZM90.956 32.984C90.956 31.9642 90.1215 31.1066 89.0785 31.1066C88.0587 31.1066 87.2011 31.941 87.2011 32.984C87.2011 34.027 88.0355 34.8614 89.0785 34.8614C90.1215 34.8614 90.956 34.0038 90.956 32.984ZM89.6812 33.2853L90.2838 34.0965H89.4262L88.9163 33.3548H88.8468V34.0965H88.1282V31.8483H89.3798C89.8666 31.8483 90.1447 32.1264 90.1447 32.6131C90.1447 32.9608 89.9593 33.1926 89.6812 33.2853ZM89.1944 32.4509H88.8468V32.8449H89.1944C89.3335 32.8449 89.403 32.7754 89.403 32.6363C89.403 32.5204 89.3335 32.4509 89.1944 32.4509Z" fill="#EBE0F6"/>
<path d="M58.6226 12.2163H57.2783V8.11377H61.1258V12.2163H59.7815V9.29586H58.6226V12.2163Z" fill="#EBE0F6"/>
<path d="M61.798 8.09082H63.5827C64.8112 8.09082 65.437 8.60073 65.437 9.62057C65.437 10.6404 64.8112 11.1271 63.5827 11.1271H63.1423V12.1933H61.798V8.09082ZM64.0926 9.62057C64.0926 9.34243 63.9304 9.22655 63.5827 9.22655H63.1655V10.0378H63.5827C63.9304 10.0146 64.0926 9.87553 64.0926 9.62057Z" fill="#EBE0F6"/>
<path d="M66.3177 11.6831C65.9237 11.2891 65.7383 10.756 65.7383 10.1534C65.7383 9.52757 65.9237 9.01765 66.3177 8.62362C66.7118 8.22959 67.2449 8.021 67.9634 8.021C68.6819 8.021 69.215 8.22959 69.609 8.62362C70.0031 9.01765 70.1885 9.55075 70.1885 10.1534C70.1885 10.7792 70.0031 11.2891 69.609 11.6831C69.215 12.0772 68.6819 12.2858 67.9634 12.2858C67.2449 12.2858 66.7118 12.1003 66.3177 11.6831ZM68.5892 10.8255C68.7283 10.6633 68.7978 10.4315 68.7978 10.1534C68.7978 9.87524 68.7283 9.64346 68.5892 9.48121C68.4501 9.31896 68.2415 9.22626 67.9866 9.22626C67.7316 9.22626 67.523 9.31896 67.3839 9.48121C67.2449 9.64346 67.1753 9.87524 67.1753 10.1534C67.1753 10.4315 67.2449 10.6633 67.3839 10.8255C67.523 10.9878 67.7316 11.0805 67.9866 11.0805C68.2415 11.0805 68.4269 10.9878 68.5892 10.8255Z" fill="#EBE0F6"/>
<path d="M71.5791 13.0046H70.3739V11.0576H70.8606C71.0924 10.6172 71.2547 10.1769 71.3474 9.69011C71.4401 9.20337 71.4633 8.67027 71.4633 8.09082H74.5923V11.0576H75.1254V13.0046H73.9201V12.2165H71.5791V13.0046ZM72.6685 9.24972C72.599 10.061 72.4599 10.6636 72.2513 11.0808H73.248V9.24972H72.6685Z" fill="#EBE0F6"/>
<path d="M81.4994 9.06401C81.6616 9.3885 81.7544 9.73618 81.7544 10.1534C81.7544 10.5474 81.6616 10.9182 81.4994 11.2427C81.3371 11.5672 81.0822 11.8222 80.7345 12.0076C80.3868 12.1931 79.9928 12.3089 79.5061 12.3089C78.9266 12.3089 78.4631 12.1699 78.1154 11.8685C77.7445 11.5904 77.5128 11.1964 77.42 10.756H76.9797V12.2162H75.6353V8.1137H76.9797V9.57393H77.42C77.5359 9.11037 77.7677 8.73951 78.1154 8.46137C78.4862 8.18323 78.9498 8.021 79.5061 8.021C79.9928 8.021 80.3868 8.11371 80.7345 8.32231C81.0822 8.48455 81.3371 8.73952 81.4994 9.06401ZM78.9034 9.48121C78.7644 9.64346 78.6948 9.87524 78.6948 10.1534C78.6948 10.4315 78.7644 10.6633 78.9034 10.8255C79.0425 10.9878 79.2511 11.0805 79.5061 11.0805C79.761 11.0805 79.9696 10.9878 80.1087 10.8255C80.2478 10.6633 80.3173 10.4315 80.3173 10.1534C80.3173 9.87524 80.2478 9.64346 80.1087 9.48121C79.9696 9.31896 79.761 9.22626 79.5061 9.22626C79.2511 9.22626 79.0657 9.31896 78.9034 9.48121Z" fill="#EBE0F6"/>
<path d="M82.102 10.1997C82.102 9.82888 82.1715 9.48121 82.2874 9.20307C82.4033 8.92493 82.5887 8.69315 82.7973 8.50773C83.0059 8.34548 83.2609 8.20642 83.5158 8.13689C83.7708 8.04417 84.0489 8.021 84.3503 8.021C84.7906 8.021 85.1846 8.1137 85.5555 8.27595V9.48121C85.2774 9.29579 84.9529 9.20307 84.582 9.20307C84.2575 9.20307 84.0026 9.29579 83.794 9.45804C83.5854 9.62029 83.4695 9.87524 83.4695 10.2229C83.4695 10.5242 83.5622 10.756 83.7708 10.9183C83.9794 11.0805 84.2344 11.15 84.5357 11.15C84.9992 11.15 85.3469 11.0573 85.5555 10.8487V12.0772C85.1846 12.2394 84.7906 12.3321 84.3503 12.3321C84.0489 12.3321 83.7708 12.2858 83.4927 12.2162C83.2145 12.1467 82.9827 12.0076 82.7741 11.8454C82.5655 11.6831 82.3801 11.4745 82.2642 11.1964C82.1715 10.8719 82.102 10.5474 82.102 10.1997Z" fill="#EBE0F6"/>
<path d="M86.1349 8.09082H89.2408V9.15701H87.4793V9.64375H89.0322V10.6404H87.4793V11.1271H89.264V12.2165H86.1118V8.09082H86.1349Z" fill="#EBE0F6"/>
<path d="M89.8434 8.09082H91.6282C92.8566 8.09082 93.4824 8.60073 93.4824 9.62057C93.4824 10.6404 92.8566 11.1271 91.6282 11.1271H91.1878V12.1933H89.8434V8.09082ZM92.1381 9.62057C92.1381 9.34243 91.9758 9.22655 91.6282 9.22655H91.211V10.0378H91.6282C91.9758 10.0146 92.1381 9.87553 92.1381 9.62057Z" fill="#EBE0F6"/>
<path d="M93.7837 10.1997C93.7837 9.82888 93.8533 9.48121 93.9692 9.20307C94.085 8.92493 94.2705 8.69315 94.4791 8.50773C94.6877 8.34548 94.9426 8.20642 95.1976 8.13689C95.4526 8.04417 95.7307 8.021 96.032 8.021C96.4724 8.021 96.8664 8.1137 97.2373 8.27595V9.48121C96.9591 9.29579 96.6346 9.20307 96.2638 9.20307C95.9393 9.20307 95.6843 9.29579 95.4757 9.45804C95.2671 9.62029 95.1512 9.87524 95.1512 10.2229C95.1512 10.5242 95.244 10.756 95.4526 10.9183C95.6612 11.0805 95.9161 11.15 96.2174 11.15C96.681 11.15 97.0287 11.0573 97.2373 10.8487V12.0772C96.8664 12.2394 96.4724 12.3321 96.032 12.3321C95.7307 12.3321 95.4525 12.2858 95.1744 12.2162C94.8963 12.1467 94.6645 12.0076 94.4559 11.8454C94.2473 11.6831 94.0619 11.4745 93.946 11.1964C93.8533 10.8719 93.7837 10.5474 93.7837 10.1997Z" fill="#EBE0F6"/>
<path d="M99.1842 12.2163H97.8399V8.11377H99.1842V9.574H99.5319L100.343 8.11377H101.827L100.575 10.1535L101.85 12.2163H100.366L99.4855 10.7561H99.1842V12.2163Z" fill="#EBE0F6"/>
<path d="M106.022 12.2163H104.677V10.9879C104.677 10.7329 104.677 10.5011 104.724 10.2925L103.333 12.2163H102.197V8.11377H103.542V9.34222C103.542 9.62036 103.518 9.85214 103.495 10.0376L104.886 8.11377H106.022V12.2163Z" fill="#EBE0F6"/>
<path d="M109.197 10.9647C109.197 10.7098 109.197 10.478 109.243 10.2694L107.853 12.1932H106.717V8.09066H108.061V9.31909C108.061 9.59723 108.038 9.82901 108.015 10.0144L109.406 8.09066H110.541V12.1932H109.197V10.9647ZM109.707 6.72314C109.406 6.90857 109.058 7.00128 108.641 7.00128C108.224 7.00128 107.876 6.90857 107.575 6.72314V7.55756C107.876 7.76617 108.224 7.85888 108.641 7.85888C109.058 7.85888 109.406 7.76617 109.707 7.55756V6.72314Z" fill="#EBE0F6"/>
<path d="M116.707 13.0043H115.502V12.2163H112.373V8.11377H113.717V11.0342H114.829V8.11377H116.174V11.0342H116.684V13.0043H116.707Z" fill="#EBE0F6"/>
<path d="M117.217 8.09082H120.323V9.15701H118.561V9.64375H120.114V10.6404H118.561V11.1271H120.346V12.2165H117.194V8.09082H117.217Z" fill="#EBE0F6"/>
<path d="M123.382 8.09082H124.726V12.1933H123.382V10.7331H122.27V12.1933H120.925V8.09082H122.27V9.55104H123.382V8.09082Z" fill="#EBE0F6"/>
<path d="M125.19 8.09082H128.736V9.2729H127.624V12.1933H126.279V9.2729H125.167V8.09082H125.19Z" fill="#EBE0F6"/>
<path d="M129.177 8.09082H130.961C132.19 8.09082 132.816 8.60073 132.816 9.62057C132.816 10.6404 132.19 11.1271 130.961 11.1271H130.521V12.1933H129.177V8.09082ZM131.471 9.62057C131.471 9.34243 131.309 9.22655 130.961 9.22655H130.544V10.0378H130.961C131.309 10.0146 131.471 9.87553 131.471 9.62057Z" fill="#EBE0F6"/>
</svg>
