<svg width="143" height="66" viewBox="0 0 143 66" fill="none" xmlns="http://www.w3.org/2000/svg">
<path d="M14.3489 16.0057C10.0297 16.0057 6.51929 20.8497 6.51929 26.8097C6.51929 32.7698 10.0297 37.6137 14.3489 37.6137C18.668 37.6137 22.1784 32.7698 22.1784 26.8097C22.1784 20.8497 18.668 16.0057 14.3489 16.0057ZM14.3489 34.2654C11.3723 34.2654 8.9458 30.917 8.9458 26.8097C8.9458 22.7024 11.3723 19.3541 14.3489 19.3541C17.3254 19.3541 19.7519 22.7024 19.7519 26.8097C19.7519 30.917 17.3254 34.2654 14.3489 34.2654Z" fill="#285AE1"/>
<path d="M35.12 20.4477L39.2289 25.3586L37.9994 32.658L42.6422 28.7963L47.2849 32.658L46.0555 25.3586L50.1482 20.4477L44.7451 19.8004L42.626 12.9251L40.5068 19.8004L35.12 20.4477ZM42.6422 20.1352L43.3539 22.4344L45.1657 22.6576L43.7907 24.3095L44.2113 26.7426L42.6583 25.4479L41.1054 26.7426L41.526 24.3095L40.1509 22.6576L41.9627 22.4344L42.6422 20.1352Z" fill="#285AE1"/>
<path d="M37.7889 54.8688L32.7903 45.7389L25.1225 58.7529L19.5739 38.6181L13.7341 58.7752C7.52218 54.1991 3.13829 45.5157 2.5074 35.3814C4.75597 41.2522 9.22075 45.2702 14.365 45.2702C14.5914 45.2702 14.8341 45.2702 15.0606 45.2479L16.0797 41.7432C15.5135 41.8549 14.9473 41.9218 14.365 41.9218C8.31485 41.9218 3.4133 35.1358 3.4133 26.8096C3.4133 24.4881 3.80153 22.2782 4.48096 20.3138C4.48096 20.2915 4.49713 20.2692 4.49713 20.2469C6.27658 15.1797 10.0296 11.6974 14.365 11.6974C20.4151 11.6974 25.3167 18.4834 25.3167 26.8096C25.3167 31.1178 24.0063 35.0019 21.9033 37.7475L22.8254 41.0959C25.8181 37.7029 27.7432 32.5688 27.7432 26.8096C27.7432 16.6306 21.7416 8.34905 14.365 8.34905C13.3944 8.34905 12.4561 8.48299 11.5502 8.77318C13.8149 6.58559 16.4032 4.97838 19.2018 4.15246C26.3034 7.03204 31.4962 16.1172 31.4962 26.8319C31.4962 34.801 28.6167 41.8772 24.2166 46.1631L25.1063 49.3775C30.4123 44.5559 33.9227 36.252 33.9227 26.8319C33.9227 16.8762 29.9917 8.17048 24.1681 3.50512C30.5741 3.6837 36.2845 7.791 40.1022 14.1305L41.1537 10.7152C36.8183 4.21943 30.6065 0.156773 23.7151 0.156773C14.2841 0.156773 6.11481 7.79099 2.29709 18.8405C2.29709 18.8629 2.28092 18.8852 2.28092 18.9075C0.825012 23.1488 0 27.9034 0 32.9036C0 50.94 10.6443 65.6281 23.7151 65.6281C36.0095 65.6281 46.1523 52.6365 47.3171 36.0734L44.9876 34.1313C44.7288 42.3459 41.9949 49.7346 37.7889 54.8688ZM35.8801 56.9224C33.1138 59.6011 29.8623 61.3869 26.352 61.9896L32.7256 51.1633L35.8801 56.9224ZM19.5092 47.8372L23.4725 62.2128C20.8195 62.1682 18.2798 61.4539 15.9341 60.1815L19.5092 47.8372Z" fill="#285AE1"/>
<path d="M57.0002 26.833C57.0002 25.3938 57.3943 24.2743 58.1591 23.5387C58.924 22.7711 59.8975 22.4193 61.0796 22.4193C62.5398 22.4193 63.8146 22.8031 64.8808 23.6027V27.6966C63.8146 26.7691 62.6789 26.2893 61.4504 26.3213C60.8478 26.3213 60.5233 26.5452 60.5233 26.961C60.5233 27.1529 60.616 27.3128 60.8015 27.4727C60.9869 27.6326 61.2187 27.7605 61.52 27.8885C61.8213 28.0164 62.1458 28.1443 62.4934 28.2723C62.8643 28.4002 63.212 28.5921 63.5828 28.848C63.9537 29.0718 64.2782 29.3597 64.5563 29.6795C64.8576 29.9994 65.0894 30.4152 65.2748 30.9589C65.4602 31.5026 65.553 32.0783 65.553 32.7499C65.553 35.8523 64.0927 37.3875 61.1955 37.3875C59.6194 37.3875 58.2519 36.9398 57.0698 36.0442V31.7585C58.2982 32.8779 59.573 33.4216 60.8478 33.4216C61.2882 33.4216 61.5895 33.3576 61.7517 33.2617C61.914 33.1657 62.0067 32.9738 62.0067 32.718C62.0067 32.4941 61.8908 32.3022 61.6359 32.1103C61.3809 31.9184 61.0796 31.7585 60.7087 31.6305C60.3379 31.5026 59.9207 31.3107 59.5035 31.0548C59.0631 30.799 58.6691 30.5431 58.2982 30.2232C57.9274 29.9034 57.6029 29.4556 57.3711 28.848C57.1393 28.2403 57.0002 27.6006 57.0002 26.833Z" fill="#EBE0F6"/>
<path d="M66.6886 22.7072H74.546V26.4172H70.119V28.0804H74.0129V31.5666H70.119V33.2617H74.6387V37.0357H66.6886V22.7072Z" fill="#EBE0F6"/>
<path d="M82.4034 37.0357H78.9035L75.1023 22.7392H78.7413L80.6651 31.5026L82.5657 22.7392H86.2046L82.4034 37.0357Z" fill="#EBE0F6"/>
<path d="M86.9464 22.7072H94.8037V26.4172H90.3767V28.0804H94.2706V31.5666H90.3767V33.2617H94.8964V37.0357H86.9464V22.7072Z" fill="#EBE0F6"/>
<path d="M99.5783 37.0357H96.148V22.7392H100.969C101.572 22.7392 102.105 22.8351 102.591 22.995C103.078 23.1549 103.542 23.4108 103.982 23.7946C104.423 24.1784 104.747 24.6901 105.002 25.3618C105.257 26.0334 105.373 26.865 105.373 27.7925C105.373 29.8395 104.77 31.2467 103.588 32.0783L106.254 37.0677H102.499L100.366 32.8459H99.5551V37.0357H99.5783ZM99.5783 26.5772V29.2638H100.899C101.224 29.2638 101.479 29.1358 101.664 28.88C101.85 28.6241 101.942 28.3043 101.942 27.8885C101.942 27.4727 101.85 27.1529 101.664 26.897C101.479 26.6411 101.224 26.5132 100.899 26.5132H99.5783V26.5772Z" fill="#EBE0F6"/>
<path d="M113.207 22.7072H116.614V37.0037H113.207V31.9504H110.403V37.0357H106.972V22.7391H110.403V27.8245H113.207V22.7072Z" fill="#EBE0F6"/>
<path d="M122.71 37.0357H118.167V22.7392H121.597V26.833H122.71C125.7 26.833 127.183 28.5281 127.183 31.9504C127.183 35.3406 125.7 37.0357 122.71 37.0357ZM121.597 30.703V33.1657H122.687C123.011 33.1657 123.289 33.0698 123.498 32.8459C123.707 32.654 123.823 32.3342 123.823 31.9184C123.823 31.5026 123.707 31.2147 123.498 30.9909C123.289 30.799 123.011 30.671 122.687 30.671H121.597V30.703ZM131.24 37.0357H127.809V22.7392H131.24V37.0357Z" fill="#EBE0F6"/>
<path d="M139.12 32.75C139.12 31.8224 139.143 31.0229 139.213 30.3512L135.69 37.0677H132.793V22.7711H136.223V27.0569C136.223 28.0164 136.2 28.816 136.13 29.5196L139.653 22.8031H142.55V37.0997H139.12V32.75ZM140.441 17.9097C139.7 18.5493 138.796 18.8372 137.753 18.8372C136.71 18.8372 135.806 18.5173 135.064 17.9097V20.8202C135.829 21.5238 136.71 21.8756 137.753 21.8756C138.772 21.8756 139.676 21.5238 140.441 20.8202V17.9097Z" fill="#EBE0F6"/>
<path d="M66.1093 42.281H69.1456V56.5776H65.8079V50.021L64.0927 53.6671H62.308L60.5929 50.021V56.5776H57.2552V42.281H60.2915L63.1888 48.5497L66.1093 42.281Z" fill="#EBE0F6"/>
<path d="M70.7217 42.281H74.1521V56.5776H70.7217V42.281Z" fill="#EBE0F6"/>
<path d="M79.1354 56.6095H75.705V42.313H80.526C81.1287 42.313 81.6618 42.4089 82.1485 42.5689C82.6352 42.7288 83.0988 42.9846 83.5392 43.3684C83.9796 43.7522 84.3041 44.264 84.559 44.9356C84.814 45.6073 84.9299 46.4388 84.9299 47.3664C84.9299 49.4133 84.3272 50.8206 83.1452 51.6521L85.8106 56.6415H82.0558L79.9234 52.4197H79.1122V56.6095H79.1354ZM79.1354 46.119V48.8056H80.4565C80.781 48.8056 81.036 48.6777 81.2214 48.4218C81.4068 48.1659 81.4995 47.8461 81.4995 47.4303C81.4995 47.0145 81.4068 46.6947 81.2214 46.4388C81.036 46.183 80.781 46.055 80.4565 46.055H79.1354V46.119Z" fill="#EBE0F6"/>
<path d="M91.5122 45.6713C91.5122 47.5263 90.4229 49.0295 89.0785 49.0295C87.7342 49.0295 86.6448 47.5263 86.6448 45.6713C86.6448 43.8162 87.7342 42.313 89.0785 42.313C90.4229 42.313 91.5122 43.8162 91.5122 45.6713ZM90.956 45.6713C90.956 44.264 90.1215 43.0806 89.0785 43.0806C88.0587 43.0806 87.2011 44.232 87.2011 45.6713C87.2011 47.1105 88.0355 48.2619 89.0785 48.2619C90.1215 48.2619 90.956 47.0785 90.956 45.6713ZM89.6812 46.0871L90.2838 47.2065H89.4262L88.9163 46.183H88.8468V47.2065H88.1282V44.1041H89.3798C89.8666 44.1041 90.1447 44.4879 90.1447 45.1595C90.1447 45.6393 89.9593 45.9591 89.6812 46.0871ZM89.1944 44.9356H88.8468V45.4794H89.1944C89.3335 45.4794 89.403 45.3834 89.403 45.1915C89.403 45.0316 89.3335 44.9356 89.1944 44.9356Z" fill="#EBE0F6"/>
<path d="M58.6226 17.0142H57.2783V11.3531H61.1258V17.0142H59.7815V12.9843H58.6226V17.0142Z" fill="#EBE0F6"/>
<path d="M61.798 11.3211H63.5827C64.8112 11.3211 65.437 12.0247 65.437 13.432C65.437 14.8393 64.8112 15.5109 63.5827 15.5109H63.1423V16.9822H61.798V11.3211ZM64.0926 13.432C64.0926 13.0482 63.9304 12.8883 63.5827 12.8883H63.1655V14.0077H63.5827C63.9304 13.9757 64.0926 13.7838 64.0926 13.432Z" fill="#EBE0F6"/>
<path d="M66.3177 16.2785C65.9237 15.7348 65.7383 14.9992 65.7383 14.1676C65.7383 13.3041 65.9237 12.6004 66.3177 12.0567C66.7118 11.513 67.2449 11.2252 67.9634 11.2252C68.6819 11.2252 69.215 11.513 69.609 12.0567C70.0031 12.6004 70.1885 13.3361 70.1885 14.1676C70.1885 15.0312 70.0031 15.7348 69.609 16.2785C69.215 16.8223 68.6819 17.1101 67.9634 17.1101C67.2449 17.1101 66.7118 16.8542 66.3177 16.2785ZM68.5892 15.0951C68.7283 14.8713 68.7978 14.5514 68.7978 14.1676C68.7978 13.7838 68.7283 13.464 68.5892 13.2401C68.4501 13.0162 68.2415 12.8883 67.9866 12.8883C67.7316 12.8883 67.523 13.0162 67.3839 13.2401C67.2449 13.464 67.1753 13.7838 67.1753 14.1676C67.1753 14.5514 67.2449 14.8713 67.3839 15.0951C67.523 15.319 67.7316 15.447 67.9866 15.447C68.2415 15.447 68.4269 15.319 68.5892 15.0951Z" fill="#EBE0F6"/>
<path d="M71.5791 18.1016H70.3739V15.415H70.8606C71.0924 14.8073 71.2547 14.1996 71.3474 13.528C71.4401 12.8563 71.4633 12.1207 71.4633 11.3211H74.5923V15.415H75.1254V18.1016H73.9201V17.0141H71.5791V18.1016ZM72.6685 12.9203C72.599 14.0397 72.4599 14.8713 72.2513 15.447H73.248V12.9203H72.6685Z" fill="#EBE0F6"/>
<path d="M81.4994 12.6644C81.6616 13.1122 81.7544 13.5919 81.7544 14.1676C81.7544 14.7114 81.6616 15.2231 81.4994 15.6708C81.3371 16.1186 81.0822 16.4704 80.7345 16.7263C80.3868 16.9822 79.9928 17.1421 79.5061 17.1421C78.9266 17.1421 78.4631 16.9502 78.1154 16.5344C77.7445 16.1506 77.5128 15.6069 77.42 14.9992H76.9797V17.0142H75.6353V11.3531H76.9797V13.3681H77.42C77.5359 12.7284 77.7677 12.2166 78.1154 11.8328C78.4862 11.449 78.9498 11.2252 79.5061 11.2252C79.9928 11.2252 80.3868 11.3531 80.7345 11.6409C81.0822 11.8648 81.3371 12.2167 81.4994 12.6644ZM78.9034 13.2401C78.7644 13.464 78.6948 13.7838 78.6948 14.1676C78.6948 14.5514 78.7644 14.8713 78.9034 15.0951C79.0425 15.319 79.2511 15.447 79.5061 15.447C79.761 15.447 79.9696 15.319 80.1087 15.0951C80.2478 14.8713 80.3173 14.5514 80.3173 14.1676C80.3173 13.7838 80.2478 13.464 80.1087 13.2401C79.9696 13.0162 79.761 12.8883 79.5061 12.8883C79.2511 12.8883 79.0657 13.0162 78.9034 13.2401Z" fill="#EBE0F6"/>
<path d="M82.102 14.2316C82.102 13.7199 82.1715 13.2401 82.2874 12.8563C82.4033 12.4725 82.5887 12.1527 82.7973 11.8968C83.0059 11.6729 83.2609 11.481 83.5158 11.3851C83.7708 11.2571 84.0489 11.2252 84.3503 11.2252C84.7906 11.2252 85.1846 11.3531 85.5555 11.577V13.2401C85.2774 12.9842 84.9529 12.8563 84.582 12.8563C84.2575 12.8563 84.0026 12.9843 83.794 13.2081C83.5854 13.432 83.4695 13.7838 83.4695 14.2636C83.4695 14.6794 83.5622 14.9992 83.7708 15.2231C83.9794 15.447 84.2344 15.5429 84.5357 15.5429C84.9992 15.5429 85.3469 15.415 85.5555 15.1271V16.8223C85.1846 17.0461 84.7906 17.1741 84.3503 17.1741C84.0489 17.1741 83.7708 17.1101 83.4927 17.0142C83.2145 16.9182 82.9827 16.7263 82.7741 16.5024C82.5655 16.2785 82.3801 15.9907 82.2642 15.6069C82.1715 15.1591 82.102 14.7113 82.102 14.2316Z" fill="#EBE0F6"/>
<path d="M86.1349 11.3211H89.2408V12.7923H87.4793V13.464H89.0322V14.8393H87.4793V15.5109H89.264V17.0141H86.1118V11.3211H86.1349Z" fill="#EBE0F6"/>
<path d="M89.8434 11.3211H91.6282C92.8566 11.3211 93.4824 12.0247 93.4824 13.432C93.4824 14.8393 92.8566 15.5109 91.6282 15.5109H91.1878V16.9822H89.8434V11.3211ZM92.1381 13.432C92.1381 13.0482 91.9758 12.8883 91.6282 12.8883H91.211V14.0077H91.6282C91.9758 13.9757 92.1381 13.7838 92.1381 13.432Z" fill="#EBE0F6"/>
<path d="M93.7837 14.2316C93.7837 13.7199 93.8533 13.2401 93.9692 12.8563C94.085 12.4725 94.2705 12.1527 94.4791 11.8968C94.6877 11.6729 94.9426 11.481 95.1976 11.3851C95.4526 11.2571 95.7307 11.2252 96.032 11.2252C96.4724 11.2252 96.8664 11.3531 97.2373 11.577V13.2401C96.9591 12.9842 96.6346 12.8563 96.2638 12.8563C95.9393 12.8563 95.6843 12.9843 95.4757 13.2081C95.2671 13.432 95.1512 13.7838 95.1512 14.2636C95.1512 14.6794 95.244 14.9992 95.4526 15.2231C95.6612 15.447 95.9161 15.5429 96.2174 15.5429C96.681 15.5429 97.0287 15.415 97.2373 15.1271V16.8223C96.8664 17.0461 96.4724 17.1741 96.032 17.1741C95.7307 17.1741 95.4525 17.1101 95.1744 17.0142C94.8963 16.9182 94.6645 16.7263 94.4559 16.5024C94.2473 16.2785 94.0619 15.9907 93.946 15.6069C93.8533 15.1591 93.7837 14.7113 93.7837 14.2316Z" fill="#EBE0F6"/>
<path d="M99.1842 17.0142H97.8399V11.3531H99.1842V13.3681H99.5319L100.343 11.3531H101.827L100.575 14.1676L101.85 17.0142H100.366L99.4855 14.9992H99.1842V17.0142Z" fill="#EBE0F6"/>
<path d="M106.022 17.0142H104.677V15.319C104.677 14.9672 104.677 14.6474 104.724 14.3595L103.333 17.0142H102.197V11.3531H103.542V13.0482C103.542 13.432 103.518 13.7519 103.495 14.0077L104.886 11.3531H106.022V17.0142Z" fill="#EBE0F6"/>
<path d="M109.197 15.2871C109.197 14.9353 109.197 14.6154 109.243 14.3276L107.853 16.9822H106.717V11.3211H108.061V13.0162C108.061 13.4 108.038 13.7199 108.015 13.9757L109.406 11.3211H110.541V16.9822H109.197V15.2871ZM109.707 9.4341C109.406 9.68996 109.058 9.8179 108.641 9.8179C108.224 9.8179 107.876 9.68996 107.575 9.4341V10.5855C107.876 10.8734 108.224 11.0013 108.641 11.0013C109.058 11.0013 109.406 10.8734 109.707 10.5855V9.4341Z" fill="#EBE0F6"/>
<path d="M116.707 18.1016H115.502V17.0142H112.373V11.3531H113.717V15.383H114.829V11.3531H116.174V15.383H116.684V18.1016H116.707Z" fill="#EBE0F6"/>
<path d="M117.217 11.3211H120.323V12.7923H118.561V13.464H120.114V14.8393H118.561V15.5109H120.346V17.0141H117.194V11.3211H117.217Z" fill="#EBE0F6"/>
<path d="M123.382 11.3211H124.726V16.9822H123.382V14.9672H122.27V16.9822H120.925V11.3211H122.27V13.3361H123.382V11.3211Z" fill="#EBE0F6"/>
<path d="M125.19 11.3211H128.736V12.9523H127.624V16.9822H126.279V12.9523H125.167V11.3211H125.19Z" fill="#EBE0F6"/>
<path d="M129.177 11.3211H130.961C132.19 11.3211 132.816 12.0247 132.816 13.432C132.816 14.8393 132.19 15.5109 130.961 15.5109H130.521V16.9822H129.177V11.3211ZM131.471 13.432C131.471 13.0482 131.309 12.8883 130.961 12.8883H130.544V14.0077H130.961C131.309 13.9757 131.471 13.7838 131.471 13.432Z" fill="#EBE0F6"/>
</svg>
